HIERARCHY
ROOT Hips
{
	OFFSET 0.00000 0.00000 0.00000
	CHANNELS 6 Xposition Yposition Zposition Zrotation Yrotation Xrotation 
	JOINT LHipJoint
	{
		OFFSET 0 0 0
		CHANNELS 3 Zrotation Yrotation Xrotation
		JOINT LeftHip
		{
			OFFSET 1.58895 -1.83665 0.71753
			CHANNELS 3 Zrotation Yrotation Xrotation
			JOINT LeftKnee
			{
				OFFSET 2.50528 -6.88321 0.00000
				CHANNELS 3 Zrotation Yrotation Xrotation
				JOINT LeftAnkle
				{
					OFFSET 2.63244 -7.23257 0.00000
					CHANNELS 3 Zrotation Yrotation Xrotation
					JOINT LeftToe
					{
						OFFSET 0.23691 -0.65090 1.72750
						CHANNELS 3 Zrotation Yrotation Xrotation
						End Site
						{
							OFFSET 0.00000 -0.00000 0.92561
						}
					}
				}
			}
		}
	}
	JOINT RHipJoint
	{
		OFFSET 0 0 0
		CHANNELS 3 Zrotation Yrotation Xrotation
		JOINT RightHip
		{
			OFFSET -1.51435 -1.83665 0.71753
			CHANNELS 3 Zrotation Yrotation Xrotation
			JOINT RightKnee
			{
				OFFSET -2.54551 -6.99375 0.00000
				CHANNELS 3 Zrotation Yrotation Xrotation
				JOINT RightAnkle
				{
					OFFSET -2.66027 -7.30903 0.00000
					CHANNELS 3 Zrotation Yrotation Xrotation
					JOINT RightToe
					{
						OFFSET -0.22981 -0.63138 2.03959
						CHANNELS 3 Zrotation Yrotation Xrotation
						End Site
						{
							OFFSET -0.00000 -0.00000 1.07060
						}
					}
				}
			}
		}
	}
	JOINT lowerback
	{
		OFFSET 0 0 0
		CHANNELS 3 Zrotation Yrotation Xrotation
		JOINT Chest
		{
			OFFSET -0.02651 1.86275 -0.11152
			CHANNELS 3 Zrotation Yrotation Xrotation
			JOINT Chest2
			{
				OFFSET 0.01019 1.86224 0.04087
				CHANNELS 3 Zrotation Yrotation Xrotation
				JOINT lowerneck
				{
					OFFSET 0 0 0
					CHANNELS 3 Zrotation Yrotation Xrotation
					JOINT Neck
					{
						OFFSET -0.01926 1.80512 0.08867
						CHANNELS 3 Zrotation Yrotation Xrotation
						JOINT Head
						{
							OFFSET 0.05516 1.76451 -0.38475
							CHANNELS 3 Zrotation Yrotation Xrotation
							End Site
							{
								OFFSET 0.01592 1.82587 -0.14001
							}
						}
					}
				}
				JOINT LeftCollar
				{
					OFFSET 0 0 0
					CHANNELS 3 Zrotation Yrotation Xrotation
					JOINT LeftShoulder
					{
						OFFSET 3.47116 1.51376 0.14491
CHANNELS 3 Zrotation Xrotation Yrotation
						JOINT LeftElbow
						{
OFFSET 0 -4.780950 0.000000
CHANNELS 3 Zrotation Xrotation Yrotation
							JOINT LeftWrist
							{
OFFSET 0 -3.586150 -0.000000
CHANNELS 3 Zrotation Xrotation Yrotation
								JOINT lhand
								{
									OFFSET 0 0 0
CHANNELS 3 Zrotation Xrotation Yrotation
									JOINT LFingers
									{
OFFSET 0 -0.659810 0.000000
CHANNELS 3 Zrotation Xrotation Yrotation
										End Site
										{
OFFSET 0 -0.531960 0.000000
										}
									}
								}
								JOINT LThumb
								{
OFFSET 0 0.000000 0.000000
CHANNELS 3 Zrotation Xrotation Yrotation
									End Site
									{
OFFSET 0 -0.540080 0.540080
									}
								}
							}
						}
					}
				}
				JOINT RightCollar
				{
					OFFSET 0 0 0
					CHANNELS 3 Zrotation Yrotation Xrotation
					JOINT RightShoulder
					{
						OFFSET -3.31725 1.61216 0.35156
CHANNELS 3 Zrotation Xrotation Yrotation
						JOINT RightElbow
						{
OFFSET 0 -4.489130 0.000000
CHANNELS 3 Zrotation Xrotation Yrotation
							JOINT RightWrist
							{
OFFSET 0 -3.705100 0.000000
CHANNELS 3 Zrotation Xrotation Yrotation
								JOINT rhand
								{
									OFFSET 0 0 0
CHANNELS 3 Zrotation Xrotation Yrotation
									JOINT RFingers
									{
OFFSET 0 -0.449140 0.000000
CHANNELS 3 Zrotation Xrotation Yrotation
										End Site
										{
OFFSET 0 -0.362110 0.000000
										}
									}
								}
								JOINT RThumb
								{
OFFSET 0 0.000000 0.000000
CHANNELS 3 Zrotation Xrotation Yrotation
									End Site
									{
OFFSET 0 -0.367630 0.367630
									}
								}
							}
						}
					}
				}
			}
		}
	}
}
MOTION
Frames: 9
Frame Time: 0.008333333333333333
-0.871600 18.732800 5.109500 -4.330300 -1.082000 1.758200 0.000000 0.000000 0.000000 -8.935500 -8.459300 -6.295100 1.601900 7.982400 22.660500 1.317000 3.799600 -23.344000 8.370200 -16.384900 -53.885400 0.000000 0.000000 0.000000 18.939000 0.348100 4.667200 0.000000 -0.000000 0.000000 -0.708600 -6.384700 -19.482300 -0.189300 2.802100 -7.728300 2.277300 0.239600 9.041000 1.103700 0.596700 0.790700 -0.210100 0.263400 -4.238400 2.046700 -0.461300 -11.314000 0.681200 -1.222300 21.502100 -0.245000 -0.342800 8.552200 -0.000000 -0.000000 0.000000 0.089900 9.791500 -28.780100 23.343500 -34.462300 7.331800 6.204200 2.625500 26.361500 0.000000 0.000000 0.000000 -7.125000 0.000000 0.000000 -14.210600 4.165100 -13.573200 -0.000000 -0.000000 0.000000 -2.556500 16.576500 26.558400 -25.918800 -37.128400 -8.838600 -1.893800 8.993300 39.024300 0.000000 0.000000 0.000000 7.125000 0.000000 -0.000000 41.724200 64.202500 -21.144900
-0.899093 18.737459 5.123534 -3.797549 -1.237427 1.959173 0.000000 0.000000 0.000000 -9.436789 -8.487697 -6.267148 1.547719 7.852552 22.267129 1.301756 4.051213 -23.354027 8.378520 -16.390710 -53.914923 0.000000 0.000000 0.000000 18.437889 0.547632 4.506494 0.000000 0.000000 0.000000 -0.711485 -6.366093 -19.498100 -0.175159 2.695636 -7.432449 1.276590 0.382314 8.615243 1.040194 0.674850 0.759333 0.279545 0.320442 -4.041822 2.150395 -0.462227 -11.308279 0.604206 -1.227912 21.541518 -0.288996 -0.344468 8.563337 0.000000 0.000000 0.000000 0.087239 9.819131 -28.959959 23.573299 -34.709729 7.462197 5.916227 3.077435 25.208071 0.000000 0.000000 0.000000 -7.125000 0.000000 0.000000 -14.370671 5.310424 -13.417317 0.000000 0.000000 0.000000 -2.497295 16.661347 26.432242 -25.899814 -37.109614 -8.827156 -1.819503 9.014449 38.868355 0.000000 0.000000 0.000000 7.125000 0.000000 0.000000 41.578556 64.066567 -20.929163
-0.902597 18.738651 5.129798 -3.688201 -1.263675 1.963703 0.000000 0.000000 0.000000 -9.567055 -8.509878 -6.142799 1.524311 7.795687 22.095246 1.296239 4.175617 -23.375914 8.384241 -16.394685 -53.935174 0.000000 0.000000 0.000000 18.327625 0.565506 4.522408 0.000000 0.000000 0.000000 -0.707978 -6.400207 -19.487387 -0.181725 2.745693 -7.571558 1.104068 0.414437 8.542237 1.016275 0.699281 0.723330 0.349255 0.335315 -4.039993 2.212654 -0.450485 -11.212341 0.560788 -1.211696 21.548570 -0.311889 -0.336468 8.547562 0.000000 0.000000 0.000000 0.074436 9.882375 -29.004671 23.628017 -34.768493 7.493390 5.788633 3.240029 25.145697 0.000000 0.000000 0.000000 -7.125000 0.000000 0.000000 -14.446536 5.382419 -13.472950 0.000000 0.000000 0.000000 -2.501350 16.800833 26.421259 -25.903728 -37.113440 -8.829454 -1.766866 8.978611 38.898669 0.000000 0.000000 0.000000 7.125000 0.000000 0.000000 41.671651 64.074586 -20.991807
-0.901800 18.737951 5.134942 -3.666612 -1.232659 1.922870 0.000000 0.000000 0.000000 -9.612227 -8.541115 -6.034742 1.516183 7.775775 22.035126 1.292994 4.217128 -23.372245 8.383337 -16.394080 -53.932012 0.000000 0.000000 0.000000 18.302739 0.512842 4.578071 0.000000 0.000000 0.000000 -0.708583 -6.387329 -19.484493 -0.179756 2.730706 -7.529916 1.110932 0.417019 8.532453 0.997073 0.702729 0.697758 0.325064 0.336585 -4.060779 2.274371 -0.445173 -11.116685 0.511896 -1.202429 21.518129 -0.337195 -0.332805 8.518998 0.000000 0.000000 0.000000 0.037842 9.950562 -28.989674 23.627661 -34.768029 7.493183 6.143223 3.089265 25.210874 0.000000 0.000000 0.000000 -7.125000 0.000000 0.000000 -14.234403 5.286851 -13.288492 0.000000 0.000000 0.000000 -2.493142 16.894582 26.395185 -25.897275 -37.107138 -8.825647 -1.733899 8.956207 39.042797 0.000000 0.000000 0.000000 7.125000 0.000000 0.000000 41.905291 64.172121 -21.223433
-0.901876 18.736519 5.140274 -3.655702 -1.170694 1.875321 0.000000 0.000000 0.000000 -9.624600 -8.510408 -5.990322 1.515803 7.774832 22.032371 1.283667 4.191620 -23.283152 8.400969 -16.406388 -53.994516 0.000000 0.000000 0.000000 18.290892 0.426152 4.638354 0.000000 0.000000 0.000000 -0.713574 -6.329088 -19.491494 -0.176834 2.708880 -7.469191 1.119162 0.405686 8.485130 0.995664 0.687432 0.703089 0.321123 0.329031 -4.028697 2.274002 -0.443463 -11.070496 0.514462 -1.198703 21.491039 -0.335657 -0.331239 8.501296 0.000000 0.000000 0.000000 -0.015729 9.954239 -29.007327 23.618862 -34.758632 7.488114 6.696940 2.745757 24.972342 0.000000 0.000000 0.000000 -7.125000 0.000000 0.000000 -13.899994 5.466975 -12.907002 0.000000 0.000000 0.000000 -2.513523 16.888221 26.351863 -25.851716 -37.061867 -8.798109 -1.723386 8.985428 39.057301 0.000000 0.000000 0.000000 7.125000 0.000000 0.000000 41.935722 64.179851 -21.248984
-0.901622 18.736120 5.145523 -3.659229 -1.128858 1.861030 0.000000 0.000000 0.000000 -9.620029 -8.507892 -5.970902 1.515983 7.775407 22.033921 1.288067 4.138138 -23.289452 8.370277 -16.384954 -53.885713 0.000000 0.000000 0.000000 18.296232 0.374085 4.660544 0.000000 0.000000 0.000000 -0.712397 -6.341412 -19.488966 -0.181284 2.742316 -7.562108 1.137570 0.386751 8.411532 1.000530 0.662939 0.697593 0.319185 0.316791 -3.993130 2.180285 -0.417753 -11.089285 0.684323 -1.183329 21.521044 -0.261449 -0.313826 8.517043 0.000000 0.000000 0.000000 -0.093927 9.888782 -28.897232 23.561663 -34.697296 7.455564 6.332681 3.071388 24.905008 0.000000 0.000000 0.000000 -7.125000 0.000000 0.000000 -14.118491 5.566176 -13.095785 0.000000 0.000000 0.000000 -2.520648 16.891862 26.294368 -25.813040 -37.023479 -8.774784 -1.624279 9.023437 39.054070 0.000000 0.000000 0.000000 7.125000 0.000000 0.000000 42.027351 64.150162 -21.275109
-0.901046 18.736200 5.151609 -3.658824 -1.095073 1.873417 0.000000 0.000000 0.000000 -9.625751 -8.534352 -5.959397 1.514992 7.772995 22.026557 1.295413 4.064237 -23.309787 8.362519 -16.379506 -53.858212 0.000000 0.000000 0.000000 18.295552 0.338222 4.659307 0.000000 0.000000 0.000000 -0.709310 -6.375439 -19.483030 -0.191777 2.819800 -7.777395 1.146525 0.376885 8.303903 0.995131 0.648867 0.666528 0.310918 0.309751 -3.965039 2.192572 -0.387922 -11.159415 0.705345 -1.153080 21.635274 -0.253802 -0.294786 8.569248 0.000000 0.000000 0.000000 -0.121416 9.904431 -28.851116 23.547265 -34.681834 7.447406 5.668299 3.445582 24.925503 0.000000 0.000000 0.000000 -7.125000 0.000000 0.000000 -14.517886 5.606509 -13.480251 0.000000 0.000000 0.000000 -2.499448 16.908028 26.235837 -25.754643 -36.965370 -8.739682 -1.759541 9.182526 38.842938 0.000000 0.000000 0.000000 7.125000 0.000000 0.000000 41.601618 64.031171 -20.909401
-0.900127 18.735871 5.158338 -3.595470 -1.035370 1.858335 0.000000 0.000000 0.000000 -9.699903 -8.511518 -5.933960 1.512865 7.767720 22.010844 1.295284 4.035378 -23.293307 8.371489 -16.385806 -53.890116 0.000000 0.000000 0.000000 18.222836 0.262903 4.687597 0.000000 0.000000 0.000000 -0.710962 -6.370700 -19.495727 -0.199944 2.879060 -7.942106 1.084710 0.376558 8.210586 0.991035 0.641376 0.635436 0.342772 0.307065 -3.945697 2.203982 -0.395005 -11.165375 0.620291 -1.147173 21.705319 -0.283939 -0.298782 8.593366 0.000000 0.000000 0.000000 -0.156567 9.989544 -28.870131 23.605332 -34.744079 7.480402 5.845714 3.297594 24.890569 0.000000 0.000000 0.000000 -7.125000 0.000000 0.000000 -14.411210 5.624605 -13.369243 0.000000 0.000000 0.000000 -2.512093 16.936856 26.177256 -25.714277 -36.925177 -8.715395 -1.866757 9.269554 38.686175 0.000000 0.000000 0.000000 7.125000 0.000000 0.000000 41.280726 63.944179 -20.637790
-0.898226 18.735192 5.166444 -3.560092 -0.984156 1.832394 0.000000 0.000000 0.000000 -9.751323 -8.491632 -5.876896 1.508004 7.755736 21.974554 1.289557 4.031666 -23.244814 8.366659 -16.382356 -53.872733 0.000000 0.000000 0.000000 18.176252 0.191223 4.734421 0.000000 0.000000 0.000000 -0.715511 -6.335439 -19.515868 -0.198347 2.868071 -7.911697 1.035673 0.371399 8.088742 1.018190 0.628939 0.641018 0.400624 0.302255 -3.872546 2.150323 -0.395751 -11.184558 0.527844 -1.116324 21.689541 -0.302711 -0.298116 8.591023 0.000000 0.000000 0.000000 -0.239558 9.987738 -28.872660 23.630674 -34.771274 7.494864 6.411656 2.902646 24.806960 0.000000 0.000000 0.000000 -7.125000 0.000000 0.000000 -14.070426 5.654314 -13.023774 0.000000 0.000000 0.000000 -2.585288 16.938247 26.187155 -25.725882 -36.936782 -8.722439 -1.989462 9.336175 38.743176 0.000000 0.000000 0.000000 7.125000 0.000000 0.000000 41.240026 64.020169 -20.685862
